<svg id="SvgjsSvg1001" width="420" height="328" xmlns="http://www.w3.org/2000/svg" version="1.1" xmlns:xlink="http://www.w3.org/1999/xlink" xmlns:svgjs="http://svgjs.com/svgjs"><defs id="SvgjsDefs1002"><marker id="SvgjsMarker1064" markerWidth="14" markerHeight="10" refX="10" refY="5" viewBox="0 0 14 10" orient="auto" markerUnits="userSpaceOnUse" stroke-dasharray="0,0"><path id="SvgjsPath1065" d="M0,0 L14,5 L0,10 L0,0" fill="#323232" stroke="#323232" stroke-width="1"></path></marker><marker id="SvgjsMarker1068" markerWidth="14" markerHeight="10" refX="10" refY="5" viewBox="0 0 14 10" orient="auto" markerUnits="userSpaceOnUse" stroke-dasharray="0,0"><path id="SvgjsPath1069" d="M0,0 L14,5 L0,10 L0,0" fill="#323232" stroke="#323232" stroke-width="1"></path></marker><marker id="SvgjsMarker1072" markerWidth="14" markerHeight="10" refX="10" refY="5" viewBox="0 0 14 10" orient="auto" markerUnits="userSpaceOnUse" stroke-dasharray="0,0"><path id="SvgjsPath1073" d="M0,0 L14,5 L0,10 L0,0" fill="#323232" stroke="#323232" stroke-width="1"></path></marker><marker id="SvgjsMarker1076" markerWidth="14" markerHeight="10" refX="10" refY="5" viewBox="0 0 14 10" orient="auto" markerUnits="userSpaceOnUse" stroke-dasharray="0,0"><path id="SvgjsPath1077" d="M0,0 L14,5 L0,10 L0,0" fill="#323232" stroke="#323232" stroke-width="1"></path></marker><marker id="SvgjsMarker1080" markerWidth="14" markerHeight="10" refX="10" refY="5" viewBox="0 0 14 10" orient="auto" markerUnits="userSpaceOnUse" stroke-dasharray="0,0"><path id="SvgjsPath1081" d="M0,0 L14,5 L0,10 L0,0" fill="#323232" stroke="#323232" stroke-width="1"></path></marker><marker id="SvgjsMarker1084" markerWidth="14" markerHeight="10" refX="10" refY="5" viewBox="0 0 14 10" orient="auto" markerUnits="userSpaceOnUse" stroke-dasharray="0,0"><path id="SvgjsPath1085" d="M0,0 L14,5 L0,10 L0,0" fill="#323232" stroke="#323232" stroke-width="1"></path></marker></defs><g id="SvgjsG1008" transform="translate(162,25)"><path id="SvgjsPath1009" d="M 0 0L 96 0L 96 54L 0 54Z" stroke="rgba(33,41,48,1)" stroke-width="2" fill-opacity="1" fill="#ffffff"></path><g id="SvgjsG1010"><text id="SvgjsText1011" font-family="微软雅黑" text-anchor="middle" font-size="13px" width="76px" fill="#323232" font-weight="400" align="middle" lineHeight="125%" anchor="middle" family="微软雅黑" size="13px" weight="400" font-style="" opacity="1" y="16.375" transform="rotate(0)"><tspan id="SvgjsTspan1012" dy="16" x="48"><tspan id="SvgjsTspan1013" style="text-decoration:;">源代码</tspan></tspan></text></g></g><g id="SvgjsG1014" transform="translate(25,125)"><path id="SvgjsPath1015" d="M 0 0L 100 0L 100 70L 0 70Z" stroke="rgba(33,41,48,1)" stroke-width="2" fill-opacity="1" fill="#ffffff"></path><g id="SvgjsG1016"><text id="SvgjsText1017" font-family="微软雅黑" text-anchor="middle" font-size="13px" width="80px" fill="#323232" font-weight="400" align="middle" lineHeight="125%" anchor="middle" family="微软雅黑" size="13px" weight="400" font-style="" opacity="1" y="15.875" transform="rotate(0)"><tspan id="SvgjsTspan1018" dy="16" x="50"><tspan id="SvgjsTspan1019" style="text-decoration:;">x86平台</tspan></tspan><tspan id="SvgjsTspan1020" dy="16" x="50"><tspan id="SvgjsTspan1021" style="text-decoration:;">编译器</tspan></tspan></text></g></g><g id="SvgjsG1022" transform="translate(25,233)"><path id="SvgjsPath1023" d="M 0 0L 100 0L 100 70L 0 70Z" stroke="rgba(33,41,48,1)" stroke-width="2" fill-opacity="1" fill="#ffffff"></path><g id="SvgjsG1024"><text id="SvgjsText1025" font-family="微软雅黑" text-anchor="middle" font-size="13px" width="80px" fill="#323232" font-weight="400" align="middle" lineHeight="125%" anchor="middle" family="微软雅黑" size="13px" weight="400" font-style="" opacity="1" y="15.875" transform="rotate(0)"><tspan id="SvgjsTspan1026" dy="16" x="50"><tspan id="SvgjsTspan1027" style="text-decoration:;">x86平台</tspan></tspan><tspan id="SvgjsTspan1028" dy="16" x="50"><tspan id="SvgjsTspan1029" style="text-decoration:;">可执行程序</tspan></tspan></text></g></g><g id="SvgjsG1030" transform="translate(160,125)"><path id="SvgjsPath1031" d="M 0 0L 100 0L 100 70L 0 70Z" stroke="rgba(33,41,48,1)" stroke-width="2" fill-opacity="1" fill="#ffffff"></path><g id="SvgjsG1032"><text id="SvgjsText1033" font-family="微软雅黑" text-anchor="middle" font-size="13px" width="80px" fill="#323232" font-weight="400" align="middle" lineHeight="125%" anchor="middle" family="微软雅黑" size="13px" weight="400" font-style="" opacity="1" y="15.875" transform="rotate(0)"><tspan id="SvgjsTspan1034" dy="16" x="50"><tspan id="SvgjsTspan1035" style="text-decoration:;">arm平台</tspan></tspan><tspan id="SvgjsTspan1036" dy="16" x="50"><tspan id="SvgjsTspan1037" style="text-decoration:;">编译器</tspan></tspan></text></g></g><g id="SvgjsG1038" transform="translate(160,233)"><path id="SvgjsPath1039" d="M 0 0L 100 0L 100 70L 0 70Z" stroke="rgba(33,41,48,1)" stroke-width="2" fill-opacity="1" fill="#ffffff"></path><g id="SvgjsG1040"><text id="SvgjsText1041" font-family="微软雅黑" text-anchor="middle" font-size="13px" width="80px" fill="#323232" font-weight="400" align="middle" lineHeight="125%" anchor="middle" family="微软雅黑" size="13px" weight="400" font-style="" opacity="1" y="15.875" transform="rotate(0)"><tspan id="SvgjsTspan1042" dy="16" x="50"><tspan id="SvgjsTspan1043" style="text-decoration:;">arm平台</tspan></tspan><tspan id="SvgjsTspan1044" dy="16" x="50"><tspan id="SvgjsTspan1045" style="text-decoration:;">可执行程序</tspan></tspan></text></g></g><g id="SvgjsG1046" transform="translate(295,125)"><path id="SvgjsPath1047" d="M 0 0L 100 0L 100 70L 0 70Z" stroke="rgba(33,41,48,1)" stroke-width="2" fill-opacity="1" fill="#ffffff"></path><g id="SvgjsG1048"><text id="SvgjsText1049" font-family="微软雅黑" text-anchor="middle" font-size="13px" width="80px" fill="#323232" font-weight="400" align="middle" lineHeight="125%" anchor="middle" family="微软雅黑" size="13px" weight="400" font-style="" opacity="1" y="15.875" transform="rotate(0)"><tspan id="SvgjsTspan1050" dy="16" x="50"><tspan id="SvgjsTspan1051" style="text-decoration:;">risc-v平台</tspan></tspan><tspan id="SvgjsTspan1052" dy="16" x="50"><tspan id="SvgjsTspan1053" style="text-decoration:;">编译器</tspan></tspan></text></g></g><g id="SvgjsG1054" transform="translate(295,233)"><path id="SvgjsPath1055" d="M 0 0L 100 0L 100 70L 0 70Z" stroke="rgba(33,41,48,1)" stroke-width="2" fill-opacity="1" fill="#ffffff"></path><g id="SvgjsG1056"><text id="SvgjsText1057" font-family="微软雅黑" text-anchor="middle" font-size="13px" width="80px" fill="#323232" font-weight="400" align="middle" lineHeight="125%" anchor="middle" family="微软雅黑" size="13px" weight="400" font-style="" opacity="1" y="15.875" transform="rotate(0)"><tspan id="SvgjsTspan1058" dy="16" x="50"><tspan id="SvgjsTspan1059" style="text-decoration:;">risc-v平台</tspan></tspan><tspan id="SvgjsTspan1060" dy="16" x="50"><tspan id="SvgjsTspan1061" style="text-decoration:;">可执行程序</tspan></tspan></text></g></g><g id="SvgjsG1062"><path id="SvgjsPath1063" d="M210 80L210 102L210 102L210 121.4" stroke="#323232" stroke-width="2" fill="none" marker-end="url(#SvgjsMarker1064)"></path></g><g id="SvgjsG1066"><path id="SvgjsPath1067" d="M210 196L210 214L210 214L210 229.39999999999998" stroke="#323232" stroke-width="2" fill="none" marker-end="url(#SvgjsMarker1068)"></path></g><g id="SvgjsG1070"><path id="SvgjsPath1071" d="M75 196L75 214L75 214L75 229.39999999999998" stroke="#323232" stroke-width="2" fill="none" marker-end="url(#SvgjsMarker1072)"></path></g><g id="SvgjsG1074"><path id="SvgjsPath1075" d="M345 196L345 214L345 214L345 229.39999999999998" stroke="#323232" stroke-width="2" fill="none" marker-end="url(#SvgjsMarker1076)"></path></g><g id="SvgjsG1078"><path id="SvgjsPath1079" d="M210 80L210 102L75 102L75 121.4" stroke="#323232" stroke-width="2" fill="none" marker-end="url(#SvgjsMarker1080)"></path></g><g id="SvgjsG1082"><path id="SvgjsPath1083" d="M210 80L210 102L345 102L345 121.4" stroke="#323232" stroke-width="2" fill="none" marker-end="url(#SvgjsMarker1084)"></path></g></svg>