<svg id="SvgjsSvg1001" width="530" height="104" xmlns="http://www.w3.org/2000/svg" version="1.1" xmlns:xlink="http://www.w3.org/1999/xlink" xmlns:svgjs="http://svgjs.com/svgjs"><defs id="SvgjsDefs1002"><marker id="SvgjsMarker1034" markerWidth="14" markerHeight="10" refX="10" refY="5" viewBox="0 0 14 10" orient="auto" markerUnits="userSpaceOnUse" stroke-dasharray="0,0"><path id="SvgjsPath1035" d="M0,0 L14,5 L0,10 L0,0" fill="#323232" stroke="#323232" stroke-width="1"></path></marker><marker id="SvgjsMarker1038" markerWidth="14" markerHeight="10" refX="10" refY="5" viewBox="0 0 14 10" orient="auto" markerUnits="userSpaceOnUse" stroke-dasharray="0,0"><path id="SvgjsPath1039" d="M0,0 L14,5 L0,10 L0,0" fill="#323232" stroke="#323232" stroke-width="1"></path></marker><marker id="SvgjsMarker1042" markerWidth="14" markerHeight="10" refX="10" refY="5" viewBox="0 0 14 10" orient="auto" markerUnits="userSpaceOnUse" stroke-dasharray="0,0"><path id="SvgjsPath1043" d="M0,0 L14,5 L0,10 L0,0" fill="#323232" stroke="#323232" stroke-width="1"></path></marker></defs><g id="SvgjsG1008" transform="translate(25,25)"><path id="SvgjsPath1009" d="M 0 0L 96 0L 96 54L 0 54Z" stroke="rgba(33,41,48,1)" stroke-width="2" fill-opacity="1" fill="#ffffff"></path><g id="SvgjsG1010"><text id="SvgjsText1011" font-family="微软雅黑" text-anchor="middle" font-size="13px" width="76px" fill="#323232" font-weight="400" align="middle" lineHeight="125%" anchor="middle" family="微软雅黑" size="13px" weight="400" font-style="" opacity="1" y="16.375" transform="rotate(0)"><tspan id="SvgjsTspan1012" dy="16" x="48"><tspan id="SvgjsTspan1013" style="text-decoration:;">源代码</tspan></tspan></text></g></g><g id="SvgjsG1014" transform="translate(153,25)"><path id="SvgjsPath1015" d="M 0 0L 96 0L 96 54L 0 54Z" stroke="rgba(33,41,48,1)" stroke-width="2" fill-opacity="1" fill="#ffffff"></path><g id="SvgjsG1016"><text id="SvgjsText1017" font-family="微软雅黑" text-anchor="middle" font-size="13px" width="76px" fill="#323232" font-weight="400" align="middle" lineHeight="125%" anchor="middle" family="微软雅黑" size="13px" weight="400" font-style="" opacity="1" y="16.375" transform="rotate(0)"><tspan id="SvgjsTspan1018" dy="16" x="48"><tspan id="SvgjsTspan1019" style="text-decoration:;">解释器</tspan></tspan></text></g></g><g id="SvgjsG1020" transform="translate(281,25)"><path id="SvgjsPath1021" d="M 0 0L 96 0L 96 54L 0 54Z" stroke="rgba(33,41,48,1)" stroke-width="2" fill-opacity="1" fill="#ffffff"></path><g id="SvgjsG1022"><text id="SvgjsText1023" font-family="微软雅黑" text-anchor="middle" font-size="13px" width="76px" fill="#323232" font-weight="400" align="middle" lineHeight="125%" anchor="middle" family="微软雅黑" size="13px" weight="400" font-style="" opacity="1" y="16.375" transform="rotate(0)"><tspan id="SvgjsTspan1024" dy="16" x="48"><tspan id="SvgjsTspan1025" style="text-decoration:;">硬件</tspan></tspan></text></g></g><g id="SvgjsG1026" transform="translate(409,25)"><path id="SvgjsPath1027" d="M 0 0L 96 0L 96 54L 0 54Z" stroke="rgba(33,41,48,1)" stroke-width="2" fill-opacity="1" fill="#ffffff"></path><g id="SvgjsG1028"><text id="SvgjsText1029" font-family="微软雅黑" text-anchor="middle" font-size="13px" width="76px" fill="#323232" font-weight="400" align="middle" lineHeight="125%" anchor="middle" family="微软雅黑" size="13px" weight="400" font-style="" opacity="1" y="16.375" transform="rotate(0)"><tspan id="SvgjsTspan1030" dy="16" x="48"><tspan id="SvgjsTspan1031" style="text-decoration:;">运行结果</tspan></tspan></text></g></g><g id="SvgjsG1032"><path id="SvgjsPath1033" d="M122 52L137 52L137 52L149.39999999999998 52" stroke="#323232" stroke-width="2" fill="none" marker-end="url(#SvgjsMarker1034)"></path></g><g id="SvgjsG1036"><path id="SvgjsPath1037" d="M250 52L265 52L265 52L277.4 52" stroke="#323232" stroke-width="2" fill="none" marker-end="url(#SvgjsMarker1038)"></path></g><g id="SvgjsG1040"><path id="SvgjsPath1041" d="M378 52L393 52L393 52L405.4 52" stroke="#323232" stroke-width="2" fill="none" marker-end="url(#SvgjsMarker1042)"></path></g></svg>